<svg width="49" height="48" viewBox="0 0 49 48" fill="none" xmlns="http://www.w3.org/2000/svg">
<path d="M32.669 19.3557C32.943 19.3557 33.1652 19.1367 33.1652 18.8664C33.1652 18.5962 32.943 18.3771 32.669 18.3771C32.395 18.3771 32.1729 18.5962 32.1729 18.8664C32.1729 19.1367 32.395 19.3557 32.669 19.3557Z" fill="#69E781"/>
<path d="M29.9355 26.8914H26.6229C26.3495 26.8914 26.1278 26.6728 26.1278 26.4032V25.8073C25.7029 25.677 25.2912 25.5081 24.8972 25.3025L24.4727 25.7226C24.3798 25.8146 24.2536 25.8662 24.122 25.8662C23.9904 25.8662 23.8642 25.8146 23.7713 25.7226L21.4289 23.4045C21.2363 23.214 21.2363 22.9058 21.4289 22.7152L21.8551 22.2934C21.6467 21.9027 21.4756 21.4944 21.3438 21.0731H20.7437C20.4702 21.0731 20.2485 20.8545 20.2485 20.5849V17.3066C20.2485 17.0369 20.4702 16.8183 20.7437 16.8183H21.3438C21.4756 16.397 21.6467 15.9888 21.8551 15.598L21.4289 15.1762C21.2363 14.9857 21.2363 14.6774 21.4289 14.4869L23.7713 12.1688C23.8642 12.0769 23.9904 12.0252 24.122 12.0252C24.2536 12.0252 24.3798 12.0769 24.4727 12.1688L24.8972 12.589C25.2912 12.3833 25.7029 12.2145 26.1278 12.0842V11.4883C26.1278 11.2186 26.3495 11 26.6229 11H29.9355C30.2089 11 30.4307 11.2186 30.4307 11.4883V12.0842C30.8555 12.2144 31.2673 12.3833 31.6612 12.5889L32.0858 12.1688C32.1787 12.0769 32.3049 12.0252 32.4365 12.0252C32.5681 12.0252 32.6943 12.0769 32.7872 12.1688L35.1296 14.4869C35.3222 14.6774 35.3222 14.9856 35.1296 15.1762L34.7034 15.598C34.9118 15.9887 35.0828 16.3969 35.2147 16.8183H35.8148C36.0882 16.8183 36.3099 17.0369 36.3099 17.3065V20.5848C36.3099 20.8545 36.0882 21.0731 35.8148 21.0731H35.2147C35.0828 21.4944 34.9117 21.9027 34.7033 22.2934L35.1296 22.7152C35.3222 22.9057 35.3222 23.214 35.1296 23.4045L32.7872 25.7226C32.6943 25.8145 32.5681 25.8662 32.4365 25.8662C32.3049 25.8662 32.1787 25.8145 32.0858 25.7226L31.6612 25.3025C31.2672 25.5081 30.8556 25.677 30.4307 25.8072V26.4031C30.4307 26.6728 30.2089 26.8914 29.9355 26.8914ZM27.118 25.9149H29.4404V25.4376C29.4404 25.214 29.5944 25.019 29.8142 24.9642C30.4038 24.8174 30.9681 24.5859 31.4913 24.2762C31.6864 24.1607 31.9362 24.1912 32.0968 24.3502L32.4364 24.6863L34.0798 23.0599L33.7377 22.7214C33.578 22.5633 33.5472 22.3185 33.6631 22.1268C33.9762 21.6086 34.2103 21.0499 34.3588 20.4661C34.414 20.2489 34.6119 20.0966 34.839 20.0966H35.3195V17.7949H34.839C34.6119 17.7949 34.414 17.6426 34.3588 17.4254C34.2103 16.8416 33.9762 16.2829 33.6631 15.7647C33.5472 15.5729 33.578 15.3282 33.7377 15.1701L34.0797 14.8316L32.4364 13.2052L32.0968 13.5413C31.9362 13.7003 31.6864 13.7308 31.4913 13.6153C30.9681 13.3056 30.4038 13.0741 29.8142 12.9272C29.5945 12.8725 29.4404 12.6774 29.4404 12.4539V11.9766H27.118V12.4538C27.118 12.6774 26.9639 12.8725 26.7441 12.9272C26.1545 13.0741 25.5902 13.3056 25.0671 13.6153C24.8719 13.7308 24.6221 13.7002 24.4615 13.5413L24.1219 13.2052L22.4786 14.8315L22.8206 15.17C22.9803 15.3281 23.0111 15.5729 22.8952 15.7646C22.5821 16.2828 22.348 16.8415 22.1995 17.4253C22.1443 17.6425 21.9464 17.7949 21.7193 17.7949H21.2388V20.0966H21.7193C21.9464 20.0966 22.1443 20.2489 22.1995 20.4661C22.348 21.0499 22.5821 21.6086 22.8952 22.1267C23.0111 22.3185 22.9803 22.5633 22.8206 22.7214L22.4785 23.0599L24.1219 24.6862L24.4615 24.3501C24.6221 24.1912 24.872 24.1607 25.0671 24.2761C25.5902 24.5858 26.1545 24.8173 26.7441 24.9642C26.9639 25.019 27.118 25.214 27.118 25.4376V25.9149ZM28.2792 23.7789C25.5853 23.7789 23.3936 21.6108 23.3936 18.9457C23.3936 16.2806 25.5853 14.1124 28.2792 14.1124C29.9858 14.1124 31.5407 14.971 32.4385 16.409C32.5819 16.6387 32.5094 16.9394 32.2765 17.0808C32.0436 17.2222 31.7388 17.1507 31.5953 16.921C30.8791 15.7739 29.6394 15.089 28.2792 15.089C26.1313 15.089 24.3838 16.8191 24.3838 18.9457C24.3838 21.0723 26.1313 22.8024 28.2792 22.8024C29.6738 22.8024 30.9707 22.0568 31.6636 20.8565L31.6797 20.8284C31.8127 20.5927 32.1141 20.508 32.3531 20.6391C32.592 20.7702 32.678 21.0675 32.5451 21.3032L32.5245 21.3392C31.6555 22.8443 30.0289 23.7789 28.2792 23.7789V23.7789Z" fill="#69E781"/>
<path d="M18.6352 36H16.0621C15.7887 36 15.567 35.7814 15.567 35.5117V35.1285C15.2837 35.0373 15.0083 34.9242 14.7426 34.7904L14.47 35.06C14.3771 35.152 14.2509 35.2036 14.1193 35.2036C13.9877 35.2036 13.8615 35.1519 13.7686 35.06L11.9491 33.2594C11.7565 33.0688 11.7565 32.7606 11.9491 32.57L12.2233 32.2987C12.0874 32.035 11.9728 31.7616 11.8804 31.4804H11.4951C11.2217 31.4804 11 31.2618 11 30.9921V28.4456C11 28.1759 11.2217 27.9573 11.4951 27.9573H11.8804C11.9728 27.6762 12.0874 27.4027 12.2233 27.139L11.9491 26.8677C11.7565 26.6771 11.7565 26.3689 11.9491 26.1784L13.7686 24.3777C13.8615 24.2857 13.9877 24.2341 14.1193 24.2341C14.2509 24.2341 14.3771 24.2857 14.47 24.3777L14.7426 24.6474C15.0083 24.5135 15.2838 24.4004 15.567 24.3092V23.926C15.567 23.6563 15.7887 23.4377 16.0621 23.4377H18.6352C18.9087 23.4377 19.1304 23.6563 19.1304 23.926V24.3092C19.4136 24.4004 19.689 24.5135 19.9547 24.6474L20.2273 24.3777C20.3202 24.2857 20.4464 24.2341 20.578 24.2341C20.7096 24.2341 20.8358 24.2858 20.9287 24.3777L22.7482 26.1784C22.9408 26.3689 22.9408 26.6771 22.7482 26.8677L22.474 27.139C22.6099 27.4027 22.7246 27.6762 22.8169 27.9573H23.2022C23.4756 27.9573 23.6973 28.1759 23.6973 28.4456V30.9921C23.6973 31.2618 23.4756 31.4804 23.2022 31.4804H22.8169C22.7245 31.7615 22.6099 32.0349 22.474 32.2987L22.7482 32.57C22.9408 32.7606 22.9408 33.0688 22.7482 33.2594L20.9287 35.06C20.8358 35.152 20.7096 35.2036 20.578 35.2036C20.4464 35.2036 20.3202 35.152 20.2273 35.06L19.9547 34.7904C19.689 34.9242 19.4135 35.0373 19.1304 35.1285V35.5117C19.1304 35.7814 18.9087 36 18.6352 36ZM16.5572 35.0235H18.1402V34.7617C18.1402 34.5382 18.2942 34.3431 18.514 34.2884C18.9616 34.1769 19.3898 34.0012 19.787 33.7661C19.982 33.6507 20.2318 33.6811 20.3925 33.8401L20.578 34.0237L21.6986 32.9148L21.5106 32.7288C21.3509 32.5707 21.3201 32.3259 21.436 32.1342C21.6737 31.7408 21.8514 31.3166 21.9641 30.8735C22.0193 30.6563 22.2173 30.5039 22.4443 30.5039H22.7071V28.934H22.4443C22.2173 28.934 22.0193 28.7816 21.9641 28.5644C21.8514 28.1213 21.6737 27.6971 21.436 27.3037C21.3201 27.112 21.3508 26.8672 21.5106 26.7091L21.6986 26.5231L20.578 25.4141L20.3925 25.5978C20.2318 25.7568 19.9821 25.7872 19.787 25.6718C19.3898 25.4367 18.9615 25.261 18.514 25.1495C18.2942 25.0948 18.1402 24.8997 18.1402 24.6761V24.4144H16.5572V24.6761C16.5572 24.8997 16.4032 25.0948 16.1834 25.1495C15.7359 25.261 15.3076 25.4367 14.9104 25.6718C14.7153 25.7872 14.4655 25.7567 14.3049 25.5978L14.1193 25.4141L12.9988 26.5231L13.1867 26.7091C13.3466 26.8672 13.3773 27.112 13.2613 27.3037C13.0236 27.6971 12.8459 28.1213 12.7333 28.5644C12.678 28.7816 12.4801 28.934 12.253 28.934H11.9902V30.5039H12.253C12.4801 30.5039 12.678 30.6563 12.7333 30.8735C12.8459 31.3166 13.0236 31.7408 13.2613 32.1342C13.3773 32.3259 13.3465 32.5707 13.1867 32.7288L12.9988 32.9148L14.1193 34.0237L14.3049 33.8401C14.4656 33.6811 14.7154 33.6507 14.9104 33.7661C15.3075 34.0012 15.7358 34.1769 16.1834 34.2884C16.4032 34.3431 16.5572 34.5382 16.5572 34.7617V35.0235ZM17.3487 33.1523C15.4347 33.1523 13.8776 31.6121 13.8776 29.7189C13.8776 27.8257 15.4347 26.2855 17.3487 26.2855C19.2627 26.2855 20.8197 27.8257 20.8197 29.7189C20.8197 31.612 19.2627 33.1523 17.3487 33.1523ZM17.3487 27.262C15.9807 27.262 14.8678 28.3641 14.8678 29.7188C14.8678 31.0735 15.9807 32.1757 17.3487 32.1757C18.7166 32.1757 19.8295 31.0735 19.8295 29.7188C19.8295 28.3641 18.7166 27.262 17.3487 27.262V27.262Z" fill="#69E781"/>
<ellipse cx="24.3019" cy="24" rx="24.3019" ry="24" fill="#69E781" fill-opacity="0.22"/>
</svg>
