<svg width="134" height="26" viewBox="0 0 134 26" fill="none" xmlns="http://www.w3.org/2000/svg">
<path d="M5.60742 5.35938L9.625 16.7031L13.6211 5.35938H17.8535V21H14.6201V16.7246L14.9424 9.34473L10.7207 21H8.50781L4.29688 9.35547L4.61914 16.7246V21H1.39648V5.35938H5.60742ZM23.7402 21H20.625V9.37695H23.7402V21ZM20.4424 6.36914C20.4424 5.90365 20.5964 5.52051 20.9043 5.21973C21.2194 4.91895 21.6455 4.76855 22.1826 4.76855C22.7126 4.76855 23.1351 4.91895 23.4502 5.21973C23.7653 5.52051 23.9229 5.90365 23.9229 6.36914C23.9229 6.8418 23.7617 7.22852 23.4395 7.5293C23.1243 7.83008 22.7054 7.98047 22.1826 7.98047C21.6598 7.98047 21.2373 7.83008 20.915 7.5293C20.5999 7.22852 20.4424 6.8418 20.4424 6.36914ZM29.165 9.37695L29.2617 10.7197C30.0924 9.68132 31.2061 9.16211 32.6025 9.16211C33.8343 9.16211 34.751 9.52376 35.3525 10.2471C35.9541 10.9704 36.262 12.0518 36.2764 13.4912V21H33.1719V13.5664C33.1719 12.9076 33.0286 12.4313 32.7422 12.1377C32.4557 11.8369 31.9795 11.6865 31.3135 11.6865C30.4398 11.6865 29.7845 12.0589 29.3477 12.8037V21H26.2432V9.37695H29.165ZM45.375 21C45.2318 20.7207 45.1279 20.3734 45.0635 19.958C44.3115 20.7959 43.334 21.2148 42.1309 21.2148C40.9922 21.2148 40.0469 20.8854 39.2949 20.2266C38.5501 19.5677 38.1777 18.737 38.1777 17.7344C38.1777 16.5026 38.6325 15.5573 39.542 14.8984C40.4587 14.2396 41.7799 13.9066 43.5059 13.8994H44.9346V13.2334C44.9346 12.6963 44.7949 12.2666 44.5156 11.9443C44.2435 11.6221 43.8102 11.4609 43.2158 11.4609C42.693 11.4609 42.2812 11.5863 41.9805 11.8369C41.6868 12.0876 41.54 12.4313 41.54 12.8682H38.4355C38.4355 12.195 38.6432 11.5719 39.0586 10.999C39.474 10.4261 40.0612 9.97852 40.8203 9.65625C41.5794 9.32682 42.4316 9.16211 43.377 9.16211C44.8092 9.16211 45.9443 9.52376 46.7822 10.2471C47.6273 10.9632 48.0498 11.973 48.0498 13.2764V18.3145C48.057 19.4173 48.2109 20.2516 48.5117 20.8174V21H45.375ZM42.8076 18.8408C43.266 18.8408 43.6885 18.7406 44.0752 18.54C44.4619 18.3324 44.7484 18.0566 44.9346 17.7129V15.7148H43.7744C42.2204 15.7148 41.3932 16.252 41.293 17.3262L41.2822 17.5088C41.2822 17.8955 41.4183 18.2142 41.6904 18.4648C41.9626 18.7155 42.335 18.8408 42.8076 18.8408ZM49.9834 15.1025C49.9834 13.3193 50.4059 11.8835 51.251 10.7949C52.1032 9.70638 53.249 9.16211 54.6885 9.16211C55.9632 9.16211 56.9551 9.59896 57.6641 10.4727L57.793 9.37695H60.6074V20.6133C60.6074 21.6302 60.3747 22.5146 59.9092 23.2666C59.4508 24.0186 58.8027 24.5915 57.9648 24.9854C57.127 25.3792 56.1458 25.5762 55.0215 25.5762C54.1693 25.5762 53.3385 25.4043 52.5293 25.0605C51.7201 24.724 51.1077 24.2871 50.6924 23.75L52.0674 21.8594C52.8408 22.7259 53.779 23.1592 54.8818 23.1592C55.7054 23.1592 56.3464 22.9372 56.8047 22.4932C57.263 22.0563 57.4922 21.4333 57.4922 20.624V20.001C56.776 20.8102 55.8343 21.2148 54.667 21.2148C53.2705 21.2148 52.139 20.6706 51.2725 19.582C50.4131 18.4863 49.9834 17.0361 49.9834 15.2314V15.1025ZM53.0879 15.3281C53.0879 16.3809 53.2992 17.208 53.7217 17.8096C54.1442 18.404 54.7243 18.7012 55.4619 18.7012C56.4072 18.7012 57.084 18.3467 57.4922 17.6377V12.75C57.0768 12.041 56.4072 11.6865 55.4834 11.6865C54.7386 11.6865 54.1514 11.9909 53.7217 12.5996C53.2992 13.2083 53.0879 14.1178 53.0879 15.3281ZM69.9639 19.8184C69.1976 20.7493 68.1377 21.2148 66.7842 21.2148C65.5381 21.2148 64.5856 20.8568 63.9268 20.1406C63.2751 19.4245 62.9421 18.3753 62.9277 16.9932V9.37695H66.0322V16.8857C66.0322 18.096 66.5837 18.7012 67.6865 18.7012C68.7393 18.7012 69.4626 18.3359 69.8564 17.6055V9.37695H72.9717V21H70.0498L69.9639 19.8184ZM82.0488 21C81.9056 20.7207 81.8018 20.3734 81.7373 19.958C80.9854 20.7959 80.0078 21.2148 78.8047 21.2148C77.666 21.2148 76.7207 20.8854 75.9688 20.2266C75.224 19.5677 74.8516 18.737 74.8516 17.7344C74.8516 16.5026 75.3063 15.5573 76.2158 14.8984C77.1325 14.2396 78.4538 13.9066 80.1797 13.8994H81.6084V13.2334C81.6084 12.6963 81.4688 12.2666 81.1895 11.9443C80.9173 11.6221 80.484 11.4609 79.8896 11.4609C79.3669 11.4609 78.9551 11.5863 78.6543 11.8369C78.3607 12.0876 78.2139 12.4313 78.2139 12.8682H75.1094C75.1094 12.195 75.3171 11.5719 75.7324 10.999C76.1478 10.4261 76.735 9.97852 77.4941 9.65625C78.2533 9.32682 79.1055 9.16211 80.0508 9.16211C81.4831 9.16211 82.6182 9.52376 83.4561 10.2471C84.3011 10.9632 84.7236 11.973 84.7236 13.2764V18.3145C84.7308 19.4173 84.8848 20.2516 85.1855 20.8174V21H82.0488ZM79.4814 18.8408C79.9398 18.8408 80.3623 18.7406 80.749 18.54C81.1357 18.3324 81.4222 18.0566 81.6084 17.7129V15.7148H80.4482C78.8942 15.7148 78.0671 16.252 77.9668 17.3262L77.9561 17.5088C77.9561 17.8955 78.0921 18.2142 78.3643 18.4648C78.6364 18.7155 79.0088 18.8408 79.4814 18.8408ZM93.4033 17.7881C93.4033 17.4085 93.2135 17.1113 92.834 16.8965C92.4616 16.6745 91.86 16.4775 91.0293 16.3057C88.265 15.7256 86.8828 14.5511 86.8828 12.7822C86.8828 11.751 87.3089 10.8916 88.1611 10.2041C89.0205 9.50944 90.1413 9.16211 91.5234 9.16211C92.9987 9.16211 94.1768 9.50944 95.0576 10.2041C95.9456 10.8988 96.3896 11.8011 96.3896 12.9111H93.2852C93.2852 12.4671 93.1419 12.1019 92.8555 11.8154C92.569 11.5218 92.1214 11.375 91.5127 11.375C90.9899 11.375 90.5853 11.4932 90.2988 11.7295C90.0124 11.9658 89.8691 12.2666 89.8691 12.6318C89.8691 12.9756 90.0303 13.2549 90.3525 13.4697C90.682 13.6774 91.2334 13.86 92.0068 14.0176C92.7803 14.168 93.432 14.3398 93.9619 14.5332C95.6019 15.1348 96.4219 16.1768 96.4219 17.6592C96.4219 18.7191 95.9671 19.5785 95.0576 20.2373C94.1481 20.889 92.9736 21.2148 91.5342 21.2148C90.5602 21.2148 89.6937 21.043 88.9346 20.6992C88.1826 20.3483 87.5918 19.8721 87.1621 19.2705C86.7324 18.6618 86.5176 18.0065 86.5176 17.3047H89.4609C89.4896 17.8561 89.6937 18.2786 90.0732 18.5723C90.4528 18.8659 90.9613 19.0127 91.5986 19.0127C92.193 19.0127 92.6406 18.9017 92.9414 18.6797C93.2493 18.4505 93.4033 18.1533 93.4033 17.7881Z" fill="white"/>
<path d="M106.648 15.5352H104.08L103.592 17H102.034L104.681 9.89062H106.038L108.699 17H107.142L106.648 15.5352ZM104.476 14.3486H106.253L105.359 11.6875L104.476 14.3486ZM110.828 14.4951V17H109.363V9.89062H112.137C112.671 9.89062 113.139 9.98828 113.543 10.1836C113.95 10.3789 114.262 10.6572 114.48 11.0186C114.699 11.3766 114.808 11.7852 114.808 12.2441C114.808 12.9408 114.568 13.4909 114.09 13.8945C113.615 14.2949 112.955 14.4951 112.112 14.4951H110.828ZM110.828 13.3086H112.137C112.524 13.3086 112.819 13.2174 113.021 13.0352C113.226 12.8529 113.328 12.5924 113.328 12.2539C113.328 11.9056 113.226 11.624 113.021 11.4092C112.815 11.1943 112.532 11.0837 112.171 11.0771H110.828V13.3086ZM117.283 14.4951V17H115.818V9.89062H118.592C119.126 9.89062 119.594 9.98828 119.998 10.1836C120.405 10.3789 120.717 10.6572 120.936 11.0186C121.154 11.3766 121.263 11.7852 121.263 12.2441C121.263 12.9408 121.023 13.4909 120.545 13.8945C120.07 14.2949 119.41 14.4951 118.567 14.4951H117.283ZM117.283 13.3086H118.592C118.979 13.3086 119.274 13.2174 119.476 13.0352C119.681 12.8529 119.783 12.5924 119.783 12.2539C119.783 11.9056 119.681 11.624 119.476 11.4092C119.271 11.1943 118.987 11.0837 118.626 11.0771H117.283V13.3086Z" fill="white"/>
</svg>
